<svg xmlns="http://www.w3.org/2000/svg" width="639.949" height="512.108" viewBox="0 0 639.949 512.108"><path d="M392.8,1.2a32.031,32.031,0,0,0-39.6,22l-128,448a32.032,32.032,0,1,0,61.6,17.6l128-448a32.031,32.031,0,0,0-22-39.6Zm80.6,120.1a32.049,32.049,0,0,0,0,45.3L562.7,256l-89.4,89.4a32.032,32.032,0,0,0,45.3,45.3l112-112a32.049,32.049,0,0,0,0-45.3l-112-112a32.049,32.049,0,0,0-45.3,0Zm-306.7,0a32.049,32.049,0,0,0-45.3,0l-112,112a32.049,32.049,0,0,0,0,45.3l112,112a32.032,32.032,0,0,0,45.3-45.3L77.3,256l89.4-89.4a32.049,32.049,0,0,0,0-45.3Z" transform="translate(-0.025 0.054)" fill="#f7ff00"/></svg>