<svg xmlns="http://www.w3.org/2000/svg" width="171" height="312" viewBox="0 0 171 312"><g transform="translate(3 -690)"><g transform="translate(-3 848)"><rect width="26" height="26" transform="translate(0 128)" fill="rgba(255,255,255,0.09)"/><rect width="26" height="26" transform="translate(0 96)" fill="rgba(255,255,255,0.09)"/><rect width="26" height="26" transform="translate(0 64)" fill="rgba(255,255,255,0.09)"/><rect width="26" height="26" transform="translate(0 32)" fill="rgba(255,255,255,0.09)"/><rect width="26" height="26" fill="rgba(255,255,255,0.09)"/><rect width="26" height="26" transform="translate(29 96)" fill="rgba(255,255,255,0.09)"/><rect width="26" height="26" transform="translate(29 32)" fill="rgba(255,255,255,0.09)"/><rect width="26" height="26" transform="translate(29)" fill="rgba(255,255,255,0.09)"/><rect width="26" height="26" transform="translate(58 64)" fill="rgba(255,255,255,0.09)"/><rect width="26" height="26" transform="translate(29 64)" fill="rgba(255,255,255,0.09)"/><rect width="26" height="26" transform="translate(58 32)" fill="rgba(255,255,255,0.09)"/><rect width="26" height="26" transform="translate(58)" fill="rgba(255,255,255,0.09)"/><rect width="26" height="26" transform="translate(87 32)" fill="rgba(255,255,255,0.09)"/><rect width="26" height="26" transform="translate(87)" fill="rgba(255,255,255,0.09)"/><rect width="26" height="26" transform="translate(116)" fill="rgba(255,255,255,0.09)"/></g><g transform="translate(-3 690)"><rect width="26" height="26" fill="rgba(255,255,255,0.09)"/><rect width="26" height="26" transform="translate(0 32)" fill="rgba(255,255,255,0.09)"/><rect width="26" height="26" transform="translate(0 64)" fill="rgba(255,255,255,0.09)"/><rect width="26" height="26" transform="translate(0 96)" fill="rgba(255,255,255,0.09)"/><rect width="26" height="26" transform="translate(0 128)" fill="rgba(255,255,255,0.09)"/><rect width="26" height="26" transform="translate(29 32)" fill="rgba(255,255,255,0.09)"/><rect width="26" height="26" transform="translate(29 96)" fill="rgba(255,255,255,0.09)"/><rect width="26" height="26" transform="translate(29 128)" fill="rgba(255,255,255,0.09)"/><rect width="26" height="26" transform="translate(58 64)" fill="rgba(255,255,255,0.09)"/><rect width="26" height="26" transform="translate(29 64)" fill="rgba(255,255,255,0.09)"/><rect width="26" height="26" transform="translate(58 96)" fill="rgba(255,255,255,0.09)"/><rect width="26" height="26" transform="translate(58 128)" fill="rgba(255,255,255,0.09)"/><rect width="26" height="26" transform="translate(87 96)" fill="rgba(255,255,255,0.09)"/><rect width="26" height="26" transform="translate(87 128)" fill="rgba(255,255,255,0.09)"/><rect width="26" height="26" transform="translate(116 128)" fill="rgba(255,255,255,0.09)"/></g><rect width="26" height="26" transform="translate(142 831)" fill="rgba(255,255,255,0.09)"/></g></svg>