<svg xmlns="http://www.w3.org/2000/svg" width="334" height="431.001" viewBox="0 0 334 431.001"><g transform="translate(-383 1288)" fill="#fff" opacity="0.35"><path d="M 716.5003051757812 -857.4988403320312 L 605.253173828125 -857.4998168945312 C 602.467041015625 -888.377685546875 576.0908203125 -912.4996948242188 545.0004272460938 -912.4996948242188 C 513.9095458984375 -912.4996948242188 487.532958984375 -888.377685546875 484.7467651367188 -857.4998168945312 L 383.5004272460938 -857.4998168945312 L 383.5004272460938 -1287.499877929688 L 716.5003051757812 -1287.499877929688 L 716.5003051757812 -857.4988403320312 Z" stroke="none"/><path d="M 716.0003051757812 -857.9988403320312 L 716.0003051757812 -1286.999877929688 L 384.0004272460938 -1286.999877929688 L 384.0004272460938 -857.9998168945312 L 484.2915954589844 -857.9998168945312 C 487.3161926269531 -888.916259765625 513.8045654296875 -912.9996948242188 545.0004272460938 -912.9996948242188 C 576.19580078125 -912.9996948242188 602.683837890625 -888.916259765625 605.7083740234375 -857.9998168945312 L 716.0003051757812 -857.9988403320312 M 717.0003051757812 -856.9988403320312 L 604.7944946289062 -856.9998168945312 C 602.251708984375 -887.8412475585938 575.9874877929688 -911.9996948242188 545.0004272460938 -911.9996948242188 C 514.0133666992188 -911.9996948242188 487.7482604980469 -887.8408813476562 485.2054748535156 -856.9998168945312 L 383.0004272460938 -856.9998168945312 L 383.0004272460938 -1287.999877929688 L 717.0003051757812 -1287.999877929688 L 717.0003051757812 -856.9988403320312 Z" stroke="none" fill="#707070"/></g></svg>