<svg xmlns="http://www.w3.org/2000/svg" width="334" height="431" viewBox="0 0 334 431"><g transform="translate(-604.916 814)" fill="#b8c4d4" opacity="0.77"><path d="M 712.7093505859375 -383.4991455078125 L 605.4161376953125 -383.5003356933594 L 605.4161376953125 -813.4996337890625 L 938.416015625 -813.4996948242188 L 938.416015625 -383.5003356933594 L 831.123046875 -383.5003356933594 C 831.9811401367188 -387.5867919921875 832.4158935546875 -391.7886352539062 832.4158935546875 -395.9999694824219 C 832.4158935546875 -429.3599548339844 805.2760009765625 -456.5002746582031 771.91650390625 -456.5002746582031 C 738.5565185546875 -456.5002746582031 711.4161987304688 -429.3599548339844 711.4161987304688 -395.9999694824219 C 711.4161987304688 -391.7886657714844 711.8510131835938 -387.5865783691406 712.7093505859375 -383.4991455078125 Z" stroke="none"/><path d="M 712.0966796875 -383.9991149902344 C 711.3129272460938 -387.9302062988281 710.9161987304688 -391.9608764648438 710.9161987304688 -395.9999389648438 C 710.9161987304688 -429.6356811523438 738.2808227539062 -457.0002746582031 771.91650390625 -457.0002746582031 C 805.5516967773438 -457.0002746582031 832.9158935546875 -429.6356811523438 832.9158935546875 -395.9999389648438 C 832.9158935546875 -391.9607238769531 832.5192260742188 -387.9303588867188 831.7357788085938 -384.0003356933594 L 937.916015625 -384.0003356933594 L 937.916015625 -812.9996948242188 L 605.9161376953125 -812.9996337890625 L 605.9161376953125 -384.0003356933594 L 712.0966796875 -383.9991149902344 M 713.3284912109375 -382.9991149902344 L 604.9161376953125 -383.0003356933594 L 604.9161376953125 -813.9996337890625 L 938.916015625 -813.9996948242188 L 938.916015625 -383.0003356933594 L 830.50390625 -383.0003356933594 C 831.4405517578125 -387.2406616210938 831.9158935546875 -391.614013671875 831.9158935546875 -395.9999389648438 C 831.9158935546875 -429.0842895507812 805.0003051757812 -456.0002746582031 771.91650390625 -456.0002746582031 C 738.8322143554688 -456.0002746582031 711.9161987304688 -429.0842895507812 711.9161987304688 -395.9999389648438 C 711.9161987304688 -391.616455078125 712.3912353515625 -387.2427673339844 713.3282470703125 -383.0003356933594 L 713.3284912109375 -382.9991149902344 Z" stroke="none" fill="#707070"/></g></svg>