<svg xmlns="http://www.w3.org/2000/svg" width="20" height="20" viewBox="0 0 20 20"><path d="M17.7,3.828a1.705,1.705,0,0,0-1.212.5L15.277,5.542a.688.688,0,0,0-.97,0L12.368,7.482a.685.685,0,0,0,0,.97l.016.017L11.854,9,6.99,4.133a1.053,1.053,0,0,0-1.456,0L2.141,7.526a1.03,1.03,0,0,0,0,1.456L7,13.842l-3.9,3.9a1.033,1.033,0,0,0-.3.646l-.232,2.878L2.33,22.95a.342.342,0,0,0,.339.391.3.3,0,0,0,.05,0L4.407,23.1,7.3,22.884a1.023,1.023,0,0,0,.651-.3l3.9-3.892,4.836,4.835a1.031,1.031,0,0,0,1.455,0l3.394-3.394a1.03,1.03,0,0,0,0-1.456L16.7,13.846l.53-.53a.681.681,0,0,0,.952-.016l1.939-1.939a.686.686,0,0,0,0-.97L21.338,9.18a1.715,1.715,0,0,0,0-2.425L18.913,4.332A1.7,1.7,0,0,0,17.7,3.828ZM6.261,4.519a.338.338,0,0,1,.242.1l.244.241-.727.727a.342.342,0,1,0,.483.485l.727-.727.729.727L6.747,7.284a.343.343,0,0,0,.484.486L8.443,6.556l.729.727-.727.729a.342.342,0,0,0,.485.483l.727-.726.727.726L9.171,9.709a.342.342,0,1,0,.485.483l1.212-1.211.5.5L7.488,13.359,2.626,8.5a.341.341,0,0,1,0-.483L6.02,4.618A.337.337,0,0,1,6.261,4.519ZM17.7,4.525a1.029,1.029,0,0,1,.729.291l2.424,2.424a1.028,1.028,0,0,1,0,1.455L19.641,9.907l-3.88-3.88,1.213-1.212A1.019,1.019,0,0,1,17.7,4.525Zm-2.909,1.5,2.425,2.424L19.4,10.633l.242.244-.485.484a.343.343,0,0,0-.485,0l-.485.486a.341.341,0,0,0,0,.484l-.483.486h0l-4.85-4.85.485-.485a.343.343,0,0,0,.485,0L14.308,7a.343.343,0,0,0,0-.485Zm.486,1.6a.341.341,0,0,0-.242.1l-.486.485a.343.343,0,0,0,.486.485l.484-.485a.343.343,0,0,0-.241-.585Zm1.211,1.213a.334.334,0,0,0-.241.1l-.486.483a.344.344,0,0,0,.486.486l.483-.486a.341.341,0,0,0,0-.483A.335.335,0,0,0,16.488,8.837Zm-3.617.117,3.879,3.88-9.016,9L7.406,20.2l5.688-5.689a.342.342,0,1,0-.485-.484L6.92,19.718l-.808-.162-.162-.809,4.72-4.718a.343.343,0,0,0-.485-.486l-4.718,4.72-1.6-.319ZM17.7,10.048a.339.339,0,0,0-.242.1l-.485.484a.343.343,0,1,0,.485.486l.485-.486a.344.344,0,0,0-.242-.585ZM12.367,11.5a.334.334,0,0,0-.241.1l-.97.971a.34.34,0,0,0,0,.485.341.341,0,0,0,.484,0l.97-.97a.342.342,0,0,0-.242-.585Zm3.852,2.829.226.225-.729.727a.343.343,0,0,0,.486.485l.726-.727.729.727-1.212,1.212a.343.343,0,1,0,.484.486l1.213-1.212.727.726-.727.727a.343.343,0,0,0,.484.486l.729-.727.727.727-1.213,1.212a.343.343,0,0,0,.486.484l1.211-1.212.486.486a.344.344,0,0,1,0,.484l-3.4,3.4a.351.351,0,0,1-.484,0l-4.836-4.836ZM3.475,18.563l1.812.362.2.99a.344.344,0,0,0,.269.268l.988.2.366,1.829L4.5,22.4,3.266,21.171Z" transform="translate(-1.84 -3.828)" fill="aqua"/></svg>