<svg xmlns="http://www.w3.org/2000/svg" xmlns:xlink="http://www.w3.org/1999/xlink" width="35.162" height="35.941" viewBox="0 0 35.162 35.941"><defs><linearGradient id="a" x1="0.844" y1="0.151" x2="0.5" y2="1" gradientUnits="objectBoundingBox"><stop offset="0" stop-color="#e9ee60"/><stop offset="1" stop-color="#3bafca"/></linearGradient></defs><g fill="none" stroke="#b6bb20" stroke-width="2"><ellipse cx="17.581" cy="17.97" rx="17.581" ry="17.97" stroke="none"/><ellipse cx="17.581" cy="17.97" rx="16.581" ry="16.97" fill="none"/></g><path d="M15.245,30.49A15.245,15.245,0,0,1,4.465,4.465a15.245,15.245,0,0,1,21.56,21.56A15.146,15.146,0,0,1,15.245,30.49ZM11.717,16.04h0L5.661,22.1H24.828L18.771,16.04,17.19,17.516a2.859,2.859,0,0,1-3.892,0l-1.58-1.475ZM25.905,9.382,19.885,15l6.02,6.02Zm-21.321,0V21.022L10.6,15Zm1.17-.991L14.339,16.4a1.329,1.329,0,0,0,1.812,0l8.585-8.012Z" transform="translate(4.672 4.451)" fill="url(#a)"/></svg>