<svg xmlns="http://www.w3.org/2000/svg" width="20" height="23.346" viewBox="0 0 20 23.346"><path d="M16.02,8a1.465,1.465,0,0,0-1.459,1.459v6.327l.73-.73v-5.6a.724.724,0,0,1,.73-.73H29.152a.724.724,0,0,1,.73.73v5.6l.73.73V9.459A1.465,1.465,0,0,0,29.152,8Zm.73,2.189a.365.365,0,1,0,.365.365A.365.365,0,0,0,16.749,10.189Zm1.459,0a.365.365,0,1,0,.365.365A.365.365,0,0,0,18.209,10.189Zm1.459,0a.365.365,0,1,0,.365.365A.365.365,0,0,0,19.668,10.189Zm1.459,0a.365.365,0,1,0,.365.365A.365.365,0,0,0,21.127,10.189Zm1.459,0a.365.365,0,1,0,.365.365A.365.365,0,0,0,22.586,10.189Zm1.459,0a.365.365,0,1,0,.365.365A.365.365,0,0,0,24.045,10.189Zm1.459,0a.365.365,0,1,0,.365.365A.365.365,0,0,0,25.5,10.189Zm1.459,0a.365.365,0,1,0,.365.365A.365.365,0,0,0,26.963,10.189Zm1.459,0a.365.365,0,1,0,.365.365A.365.365,0,0,0,28.422,10.189ZM16.749,11.648a.365.365,0,1,0,.365.365A.365.365,0,0,0,16.749,11.648Zm11.673,0a.365.365,0,1,0,.365.365A.365.365,0,0,0,28.422,11.648ZM16.749,13.107a.365.365,0,1,0,.365.365A.365.365,0,0,0,16.749,13.107Zm11.673,0a.365.365,0,1,0,.365.365A.365.365,0,0,0,28.422,13.107Zm-10.472.836-5.365,5.365,5.365,5.365.516-.516-4.849-4.849,4.849-4.849Zm9.27,0-.516.516,4.849,4.849-4.849,4.849.516.516,5.365-5.365ZM14.561,22.83v7.056a1.465,1.465,0,0,0,1.459,1.459H29.152a1.465,1.465,0,0,0,1.459-1.459V22.83l-.73.73v6.327a.724.724,0,0,1-.73.73H16.02a.724.724,0,0,1-.73-.73V23.56Zm2.189,1.949a.365.365,0,1,0,.365.365A.365.365,0,0,0,16.749,24.78Zm11.673,0a.365.365,0,1,0,.365.365A.365.365,0,0,0,28.422,24.78ZM16.749,26.239a.365.365,0,1,0,.365.365A.365.365,0,0,0,16.749,26.239Zm11.673,0a.365.365,0,1,0,.365.365A.365.365,0,0,0,28.422,26.239ZM16.749,27.7a.365.365,0,1,0,.365.365A.365.365,0,0,0,16.749,27.7Zm1.459,0a.365.365,0,1,0,.365.365A.365.365,0,0,0,18.209,27.7Zm1.459,0a.365.365,0,1,0,.365.365A.365.365,0,0,0,19.668,27.7Zm1.459,0a.365.365,0,1,0,.365.365A.365.365,0,0,0,21.127,27.7Zm1.459,0a.365.365,0,1,0,.365.365A.365.365,0,0,0,22.586,27.7Zm1.459,0a.365.365,0,1,0,.365.365A.365.365,0,0,0,24.045,27.7Zm1.459,0a.365.365,0,1,0,.365.365A.365.365,0,0,0,25.5,27.7Zm1.459,0a.365.365,0,1,0,.365.365A.365.365,0,0,0,26.963,27.7Zm1.459,0a.365.365,0,1,0,.365.365A.365.365,0,0,0,28.422,27.7Z" transform="translate(-12.586 -8)" fill="aqua"/></svg>