<svg xmlns="http://www.w3.org/2000/svg" xmlns:xlink="http://www.w3.org/1999/xlink" width="33.059" height="33.628" viewBox="0 0 33.059 33.628"><defs><linearGradient id="a" x1="0.844" y1="0.151" x2="0.5" y2="1" gradientUnits="objectBoundingBox"><stop offset="0" stop-color="#e9ee60"/><stop offset="1" stop-color="#3bafca"/></linearGradient></defs><g fill="none" stroke="#b6bb20" stroke-width="2"><ellipse cx="16.529" cy="16.814" rx="16.529" ry="16.814" stroke="none"/><ellipse cx="16.529" cy="16.814" rx="15.529" ry="15.814" fill="none"/></g><path d="M14.195,28.179A14.157,14.157,0,0,1,4.158,24.052a14.015,14.015,0,0,1,0-19.925,14.267,14.267,0,0,1,20.073,0,14.017,14.017,0,0,1,0,19.925A14.154,14.154,0,0,1,14.195,28.179ZM14.149,17.6a10.755,10.755,0,0,1,1.771.137,1.538,1.538,0,0,1,1,.923,1.911,1.911,0,0,1,.084.592v.023a1.809,1.809,0,0,0,.18.89,1.635,1.635,0,0,0,1.466.542h.41a11.566,11.566,0,0,0,2.039-.137.825.825,0,0,0,.487-.224.807.807,0,0,0,.161-.313,5.474,5.474,0,0,0-.314-3.6,3.963,3.963,0,0,0-2.427-1.851,7.616,7.616,0,0,0-1.254-.176c-.211-.018-.443-.033-.688-.049l-.125-.008c-.577-.037-1.173-.075-1.648-.14-.177-.025-.408-.065-.63-.1l-.019,0c-.308-.053-.657-.113-.91-.142a5.6,5.6,0,0,0-.617-.033,11.136,11.136,0,0,0-3.394.689,5.562,5.562,0,0,0-1.924.92,4.651,4.651,0,0,0-1.313,3.91,1.037,1.037,0,0,0,.232.679,1.03,1.03,0,0,0,.372.224,5.18,5.18,0,0,0,3.169.2,1.4,1.4,0,0,0,.83-.48,1.474,1.474,0,0,0,.17-1.032v-.014a1.63,1.63,0,0,1,.049-.721c.191-.459.839-.577,1.381-.629C13.193,17.628,13.685,17.6,14.149,17.6Zm5.5-9.489a.192.192,0,0,0-.168.1c-.37.69-.7,1.34-1,1.913l-.041.079-.055.106c-.31.6-.63,1.221-.989,1.892a.184.184,0,0,0,.068.248.661.661,0,0,1,.151.149.913.913,0,0,0,.273.245.2.2,0,0,0,.089.022.193.193,0,0,0,.136-.058L21.306,9.52a.184.184,0,0,0-.007-.267,6.628,6.628,0,0,0-1.569-1.119A.184.184,0,0,0,19.648,8.115ZM8.794,7.983a.184.184,0,0,0-.142.066c-.365.428-.71.871-1.025,1.315a.187.187,0,0,0,.028.247L10.532,12.2a.95.95,0,0,0,.6.285.443.443,0,0,0,.32-.13.359.359,0,0,1,.052-.046A.417.417,0,0,0,11.7,12a.18.18,0,0,0-.039-.114c-.276-.359-.562-.737-.781-1.026l-.125-.164c-.314-.417-.62-.819-.907-1.194a5.789,5.789,0,0,1-.877-1.4.193.193,0,0,0-.179-.121Zm4.99-2.225a3.7,3.7,0,0,0-.383.018.181.181,0,0,0-.132.074A.189.189,0,0,0,13.236,6c.152.8.26,1.694.385,2.774.105.905.225,1.931.39,2.8a.19.19,0,0,0,.186.154l.027,0h.005a2.046,2.046,0,0,1,.284-.014h.164a1.445,1.445,0,0,0,.256-.017.187.187,0,0,0,.153-.161c.1-.761.231-1.543.36-2.3l.01-.061.007-.043c.129-.748.275-1.6.381-2.421a1.012,1.012,0,0,0-.03-.514c-.083-.207-.307-.454-.9-.454a2.6,2.6,0,0,0-.261.014,3.3,3.3,0,0,1-.334.016c-.086,0-.169,0-.256-.005h-.01C13.97,5.761,13.878,5.758,13.785,5.758Z" transform="translate(4.671 4.754)" fill="url(#a)"/></svg>