<svg xmlns="http://www.w3.org/2000/svg" width="42.163" height="44.011" viewBox="0 0 42.163 44.011"><g transform="translate(0 0)"><path d="M44.083,29.79a2.353,2.353,0,0,0-2.452-1.8,5.1,5.1,0,0,0-1.035.119,11.686,11.686,0,0,1-1.842.241c4.133-7.04,6.816-16.819,4.159-20.214A13.373,13.373,0,0,0,32.2,3h-.235a14.7,14.7,0,0,0-2.863.339l-3.583.774A14,14,0,0,0,24.018,4h-.2a9.756,9.756,0,0,0-4.341.973l-1.251-.493A19.645,19.645,0,0,0,11.36,2.994c-.144,0-.287,0-.431.008A8.7,8.7,0,0,0,4.664,5.769C2.7,7.915,1.8,11.054,2,15.1c.01.209,2.458,20.9,9.4,20.9h.089a4.039,4.039,0,0,0,2.563-1.077,4.8,4.8,0,0,0,2.145.84,10.773,10.773,0,0,0,2.418.278,7.955,7.955,0,0,0,3.44-.738c0,.88-.006,1.994-.016,3.418V38.8l0,.075a13.7,13.7,0,0,0,.711,3.7c1.051,2.859,2.866,4.434,5.111,4.434.093,0,.188,0,.284-.009a7.156,7.156,0,0,0,5-2.772A8.979,8.979,0,0,0,34.992,39.2L35,39.111V34.944l.1.01.436.038.042,0,.042,0c.124.006.252.008.381.008a12.026,12.026,0,0,0,4.616-.974C41.819,33.476,44.559,31.948,44.083,29.79Z" transform="translate(-1.975 -2.994)" fill="#fff"/><path d="M33,34c0-.205.012-.376.018-.565C33.008,33.184,33,33,33,33l.032-.022c.149-2.673.886-3.7,1.675-4.29-.11-.153-.237-.318-.356-.475-.333-.437-.748-.979-1.192-1.674l-.082-.158c-.067-.164-.229-.447-.435-.819-1.183-2.14-3.645-6.592-1.96-9.4.738-1.232,2.122-1.942,4.121-2.117C33.986,11.718,30.925,6.115,23.985,6h-.006c-6.041-.1-8.026,5.392-8.672,8.672a7.505,7.505,0,0,1,2.836-.606h.043a4.109,4.109,0,0,1,4.323,3.354A19.4,19.4,0,0,1,23,21.573a13.353,13.353,0,0,1-1.042,5.411l-.154.408c-.124.334-.255.645-.379.937s-.237.563-.318.8a6.083,6.083,0,0,1,1.125.38l.151.066a1.1,1.1,0,0,1,.137.069,3.022,3.022,0,0,1,1.489,2.233c.061.5.051,3.893.03,6.855a11.673,11.673,0,0,0,.593,3.146c.409,1.114,1.431,3.241,3.394,3.119a5.164,5.164,0,0,0,3.561-2.019A7.02,7.02,0,0,0,33,39.022V34Z" transform="translate(-1.975 -2.994)" fill="#0277bd"/><path d="M15.114,28.917a7.414,7.414,0,0,1-2.1-6.056,23.328,23.328,0,0,0,.037-5.1c-.029-.357-.048-.623-.047-.77a.181.181,0,0,1,0-.023s0-.007,0-.011c.121-3.021,1.286-7.787,4.493-10.62A17.218,17.218,0,0,0,11,5c-3.742.136-7.364,2.724-7,10,.137,2.73,3.222,19.1,7.44,19a2.685,2.685,0,0,0,1.872-1.176c1.017-1.223,2.005-2.332,2.708-3.1A7.618,7.618,0,0,1,15.114,28.917ZM37.023,14.731a1.372,1.372,0,0,1-.022.408,17.753,17.753,0,0,1-.169,2.677c-.074.636-.15,1.293-.171,1.952a11.274,11.274,0,0,0,.166,1.956,7.554,7.554,0,0,1-.765,5.437,9.111,9.111,0,0,1,.581.837c4.61-7.475,6.468-16.361,4.695-18.626A11.411,11.411,0,0,0,32,5a12.647,12.647,0,0,0-2.473.294C34.6,7.754,36.863,13.026,37.023,14.731ZM41,30.071c-2.665.55-3.947.257-4.569-.126-.1.072-.2.133-.293.19-.372.225-.961.583-1.1,2.782.083.016.156.025.246.044l.435.039a9.947,9.947,0,0,0,4.063-.781C41.962,31.2,43.153,29.627,41,30.071ZM22.023,32.119a1,1,0,0,0-.492-.732l-.108-.047A3.2,3.2,0,0,0,20,31h0c-.127.01-.253.019-.38.019-.052,0-.1-.007-.155-.009a6.654,6.654,0,0,1-2.816.99c-2.98.759-1.221,1.655-.078,1.794,1.106.277,3.735.614,5.481-.809C22.043,32.537,22.035,32.229,22.023,32.119Z" transform="translate(-1.975 -2.994)" fill="#0277bd"/><path d="M20.681,18.5a1.476,1.476,0,0,1-1.262.484A1.9,1.9,0,0,1,18,17.477h0c.044-.374.751-.569,1.578-.435a3.068,3.068,0,0,1,.768.228,2.043,2.043,0,0,0-1.782-1.182,4.813,4.813,0,0,0-3.56,1.1c.007.11.02.251.033.417a25.177,25.177,0,0,1-.05,5.537,5.48,5.48,0,0,0,1.567,4.4,4.65,4.65,0,0,0,2.513,1.438,8.854,8.854,0,0,1,.513-1.425c.113-.265.233-.547.346-.852l.162-.427a11.491,11.491,0,0,0,.909-4.7A16.536,16.536,0,0,0,20.681,18.5Zm14.166,3.506a13.025,13.025,0,0,1-.185-2.3c.023-.742.1-1.442.184-2.119.062-.533.11-1.045.138-1.55a3.186,3.186,0,0,0-2.551,1.108A2.935,2.935,0,0,1,33,17.014c.892-.116,1.543.141,1.618.637a1.089,1.089,0,0,1-.388.836,1.751,1.751,0,0,1-.981.488,1.559,1.559,0,0,1-.192.012,1.7,1.7,0,0,1-.949-.3c.112,1.973,1.567,4.612,2.283,5.907.153.277.271.5.369.688A6.547,6.547,0,0,0,34.847,22.007Z" transform="translate(-1.975 -2.994)" fill="#0277bd"/></g></svg>