<svg xmlns="http://www.w3.org/2000/svg" xmlns:xlink="http://www.w3.org/1999/xlink" width="33.162" height="33.941" viewBox="0 0 33.162 33.941"><defs><linearGradient id="a" x1="0.844" y1="0.151" x2="0.5" y2="1" gradientUnits="objectBoundingBox"><stop offset="0" stop-color="#e9ee60"/><stop offset="1" stop-color="#3bafca"/></linearGradient></defs><g fill="none" stroke="#b6bb20" stroke-width="2"><ellipse cx="16.581" cy="16.97" rx="16.581" ry="16.97" stroke="none"/><ellipse cx="16.581" cy="16.97" rx="15.581" ry="15.97" fill="none"/></g><path d="M14.247,28.491A14.245,14.245,0,0,1,4.173,4.173,14.246,14.246,0,0,1,24.319,24.319,14.153,14.153,0,0,1,14.247,28.491ZM15.453,4.3A9.943,9.943,0,0,0,14.7,24.158h.031c.253.019.489.028.721.028s.468-.009.722-.028h.014l.017,0A9.943,9.943,0,0,0,15.453,4.3Zm-6.479,16.3h0a9.08,9.08,0,1,1,12.96,0,8.858,8.858,0,0,0-2.3-1.065l-.009,0c-.9-.315-1.744-.613-1.979-1.133-.037-.443-.035-.783-.032-1.178v-.011l0-.169A4.2,4.2,0,0,0,18.65,15.2a1.653,1.653,0,0,0,.738-1.391,1.352,1.352,0,0,0-.243-.994c.236-.81.7-2.834-.117-4.143a2.263,2.263,0,0,0-1.546-1.04,2.614,2.614,0,0,0-2.075-.734,3.874,3.874,0,0,0-3.2,1.339c-.771,1.015-.917,2.551-.435,4.564a1.343,1.343,0,0,0-.254,1.009,1.652,1.652,0,0,0,.738,1.391,4.213,4.213,0,0,0,1.031,1.849v.177a11.7,11.7,0,0,1-.03,1.179c-.236.519-1.084.821-1.982,1.139l-.016.006a9.055,9.055,0,0,0-2.286,1.059Z" transform="translate(4.671 4.754)" fill="url(#a)"/></svg>