<svg xmlns="http://www.w3.org/2000/svg" xmlns:xlink="http://www.w3.org/1999/xlink" width="43" height="43" viewBox="0 0 43 43"><defs><linearGradient id="a" x1="0.857" y1="0.173" x2="0.219" y2="0.878" gradientUnits="objectBoundingBox"><stop offset="0" stop-color="#e9ee60"/><stop offset="1" stop-color="#3bafca"/></linearGradient></defs><g fill="none" stroke="#b6bb20" stroke-width="2"><ellipse cx="21" cy="21.5" rx="21" ry="21.5" stroke="none"/><ellipse cx="21" cy="21.5" rx="20" ry="20.5" fill="none"/></g><path d="M19.5,39A19.5,19.5,0,0,1,5.712,5.712,19.5,19.5,0,1,1,33.288,33.289,19.371,19.371,0,0,1,19.5,39ZM16.545,19.846V30.937h4.881V19.846h3.105l.443-3.993H21.426V13.635A1.305,1.305,0,0,1,22.744,12.3h2.23V8.756H20.095a3.934,3.934,0,0,0-3.256,2.689,5.847,5.847,0,0,0-.294,2.19v2.218H14.327v3.993Z" transform="translate(4 4)" fill="url(#a)"/></svg>