<svg xmlns="http://www.w3.org/2000/svg" xmlns:xlink="http://www.w3.org/1999/xlink" width="50" height="50" viewBox="0 0 50 50"><defs><linearGradient id="a" x1="0.5" x2="0.5" y2="1" gradientUnits="objectBoundingBox"><stop offset="0" stop-color="#e9ee60"/><stop offset="1" stop-color="#3bafca"/></linearGradient></defs><g transform="translate(-89 -7225)"><g transform="translate(-20 2507)"><g transform="translate(109 4718)" fill="none" stroke="#dae028" stroke-width="3"><circle cx="25" cy="25" r="25" stroke="none"/><circle cx="25" cy="25" r="23.5" fill="none"/></g></g><g transform="translate(100 7236)"><path d="M272.46,80.1H254.54a5.019,5.019,0,0,1-5.04-5.04V57.14a5.019,5.019,0,0,1,5.04-5.04h17.92a5.019,5.019,0,0,1,5.04,5.04V75.06A5.019,5.019,0,0,1,272.46,80.1ZM263.5,61.62a4.48,4.48,0,1,0,4.48,4.48A4.493,4.493,0,0,0,263.5,61.62Zm10.64-6.16h-4.48v4.48h4.48Zm.56,7.84h-3.864a7.761,7.761,0,0,1,.5,2.8,7.84,7.84,0,1,1-15.68,0,7.761,7.761,0,0,1,.5-2.8H252.3V73.38a3.9,3.9,0,0,0,3.92,3.92h14.56a3.9,3.9,0,0,0,3.92-3.92Z" transform="translate(-249.5 -52.1)" fill="url(#a)"/></g></g></svg>