<svg xmlns="http://www.w3.org/2000/svg" xmlns:xlink="http://www.w3.org/1999/xlink" width="44" height="43" viewBox="0 0 44 43"><defs><linearGradient id="a" x1="0.857" y1="0.173" x2="0.219" y2="0.878" gradientUnits="objectBoundingBox"><stop offset="0" stop-color="#e9ee60"/><stop offset="1" stop-color="#3bafca"/></linearGradient></defs><g fill="none" stroke="#b6bb20" stroke-width="2"><ellipse cx="22" cy="21.5" rx="22" ry="21.5" stroke="none"/><ellipse cx="22" cy="21.5" rx="21" ry="20.5" fill="none"/></g><path d="M19.5,39A19.5,19.5,0,0,1,5.712,5.712,19.5,19.5,0,1,1,33.288,33.289,19.371,19.371,0,0,1,19.5,39ZM12.749,8.756a4,4,0,0,0-3.993,3.992v14.2a4,4,0,0,0,3.993,3.993h14.2a4,4,0,0,0,3.992-3.993v-14.2a4,4,0,0,0-3.992-3.992ZM25.614,28.719H14.08a3.087,3.087,0,0,1-3.106-3.106V17.628h3.06a6.129,6.129,0,0,0-.4,2.218,6.211,6.211,0,1,0,12.422,0,6.121,6.121,0,0,0-.4-2.218H28.72v7.985a3.088,3.088,0,0,1-3.106,3.106ZM19.846,23.4a3.549,3.549,0,1,1,3.55-3.549A3.553,3.553,0,0,1,19.846,23.4Zm8.429-8.43H24.727V11.418h3.548v3.547Z" transform="translate(5 4)" fill="url(#a)"/></svg>