<svg xmlns="http://www.w3.org/2000/svg" xmlns:xlink="http://www.w3.org/1999/xlink" width="50" height="50" viewBox="0 0 50 50"><defs><linearGradient id="a" x1="0.5" x2="0.5" y2="1" gradientUnits="objectBoundingBox"><stop offset="0" stop-color="#e9ee60"/><stop offset="1" stop-color="#3bafca"/></linearGradient></defs><g transform="translate(-251 -4876)"><g transform="translate(251 4876)" fill="none" stroke="#dae028" stroke-width="3"><circle cx="25" cy="25" r="25" stroke="none"/><circle cx="25" cy="25" r="23.5" fill="none"/></g><g transform="translate(262 4886)"><path d="M371.9,80.1V68.84s-.616-2.355-2.8-2.24-2.912.46-3.92,1.666V80.1h-5.6V62.291h5.6v2.643s1.848-3.677,5.6-3.389c3.472.23,6.048,2.413,6.608,7.066h.112V80.1ZM352.86,59.994a3.448,3.448,0,1,1,3.36-3.447A3.414,3.414,0,0,1,352.86,59.994Zm2.8,20.106h-5.6V62.291h5.6Z" transform="translate(-349.5 -53.1)" fill="url(#a)"/></g></g></svg>