<svg xmlns="http://www.w3.org/2000/svg" xmlns:xlink="http://www.w3.org/1999/xlink" width="42" height="43" viewBox="0 0 42 43"><defs><linearGradient id="a" x1="0.857" y1="0.173" x2="0.219" y2="0.878" gradientUnits="objectBoundingBox"><stop offset="0" stop-color="#e9ee60"/><stop offset="1" stop-color="#3bafca"/></linearGradient></defs><g fill="none" stroke="#b6bb20" stroke-width="2"><ellipse cx="21" cy="21.5" rx="21" ry="21.5" stroke="none"/><ellipse cx="21" cy="21.5" rx="20" ry="20.5" fill="none"/></g><path d="M19,38A19,19,0,0,1,5.565,5.565a19,19,0,0,1,26.87,26.87A18.877,18.877,0,0,1,19,38Zm4.481-18.925A2.335,2.335,0,0,1,25.567,20.8v8.648h4.413V20.623h-.088c-.409-3.311-2.258-5.238-5.208-5.427-.109-.008-.218-.012-.327-.012A5.039,5.039,0,0,0,20.273,17.8v-2.03H15.86V29.448h4.413v-9.09c.808-.943,1.414-1.195,3.088-1.28C23.4,19.076,23.443,19.075,23.481,19.075ZM8.359,15.768V29.448h4.412V15.768Zm2.205-7.06a2.647,2.647,0,1,0,2.648,2.648A2.65,2.65,0,0,0,10.564,8.709Z" transform="translate(4 5)" fill="url(#a)"/></svg>