<svg xmlns="http://www.w3.org/2000/svg" xmlns:xlink="http://www.w3.org/1999/xlink" width="50" height="50" viewBox="0 0 50 50"><defs><linearGradient id="a" x1="0.5" x2="0.5" y2="1" gradientUnits="objectBoundingBox"><stop offset="0" stop-color="#e9ee60"/><stop offset="1" stop-color="#3bafca"/></linearGradient></defs><g transform="translate(-128 -7287)"><g transform="translate(19 2569)"><g transform="translate(109 4718)" fill="none" stroke="#dae028" stroke-width="3"><circle cx="25" cy="25" r="25" stroke="none"/><circle cx="25" cy="25" r="23.5" fill="none"/></g></g><g transform="translate(136 7299)"><path d="M181.9,61.051l3.6-.707a33.465,33.465,0,0,1-3.6,3.537h0a13.98,13.98,0,0,0,0,2.122c-6.912,29.143-32.4,16.269-32.4,16.269,9.288.212,10.08-3.537,10.08-3.537-5.4-.778-6.48-4.244-6.48-4.244a2.243,2.243,0,0,0,2.88-.707,6.415,6.415,0,0,1-5.04-7.074,7.567,7.567,0,0,0,3.528,1.344c-.648-.778-6.12-7.215-2.808-10.54,0,0,4.032,7.073,14.616,7.71l.72-.141a5.456,5.456,0,0,1-.144-1.556,7.494,7.494,0,0,1,7.56-7.427c5.04,0,6.12,2.829,6.12,2.829l3.6-2.122C184.06,56.807,183.7,60.344,181.9,61.051Z" transform="translate(-149.5 -56.1)" fill="url(#a)"/></g></g></svg>